<svg width="16" height="16" viewBox="0 0 16 16" fill="none" xmlns="http://www.w3.org/2000/svg">
<path fill-rule="evenodd" clip-rule="evenodd" d="M2.1924 2.72491L2.24076 2.67437C3.52571 1.3893 4.36248 1.04868 5.2553 1.56209C5.51212 1.70977 5.75289 1.9165 6.08028 2.24901L7.08453 3.29036C7.63921 3.89563 7.76531 4.4762 7.58469 5.15611L7.55981 5.24612L7.53219 5.33562L7.39794 5.7295C7.1106 6.61282 7.23056 7.11119 8.25289 8.13326C9.31603 9.19613 9.81229 9.28308 10.7637 8.9506L10.9333 8.89165L11.1384 8.82506L11.2281 8.80016C11.9508 8.60734 12.5613 8.76121 13.2087 9.40821L14.0179 10.1898L14.2561 10.4241C14.5201 10.6934 14.6947 10.9067 14.8236 11.1323C15.3338 12.0248 14.9928 12.8611 13.6708 14.1782L13.545 14.3056C13.3476 14.4958 13.1632 14.6321 12.8923 14.7607C12.4376 14.9766 11.9003 15.0581 11.276 14.9712C9.73774 14.7573 7.78669 13.5435 5.31451 11.072C5.11326 10.8708 4.92052 10.6735 4.73608 10.48L4.37824 10.0981C1.025 6.45491 0.729177 4.21693 2.10337 2.81334L2.1924 2.72491ZM5.27086 2.85362C5.05366 2.6395 4.89589 2.50897 4.7568 2.42898C4.44911 2.25205 4.11692 2.32684 3.50211 2.85599L3.30894 3.02857C3.27524 3.05967 3.24078 3.09196 3.20551 3.12546L2.98399 3.34122L2.96403 3.36616L2.81386 3.51703C2.45096 3.8877 2.27906 4.3401 2.42719 5.11812C2.67026 6.3948 3.78286 8.12669 6.02152 10.3648C8.35411 12.6968 10.1314 13.8024 11.4138 13.9808C12.1614 14.0847 12.5427 13.9037 12.9316 13.5053L13.2282 13.206C13.3673 13.0605 13.4861 12.9286 13.5864 12.8081L13.7233 12.6356C14.073 12.1697 14.105 11.8902 13.9554 11.6285C13.8985 11.529 13.8157 11.4198 13.6952 11.2864L13.5317 11.1137L13.4349 11.0169L12.4141 10.0311C12.073 9.71656 11.8398 9.67192 11.4859 9.76636L11.3837 9.79575L10.9609 9.93929C9.73411 10.3355 8.84912 10.1434 7.54588 8.84046C6.19611 7.49104 6.03782 6.58992 6.49007 5.29246L6.51908 5.20908L6.59931 4.96736L6.63874 4.81329C6.70867 4.47798 6.62883 4.24419 6.26838 3.88368L6.2189 3.83381L5.27086 2.85362Z" fill="white"/>
</svg>
