<svg width="16" height="16" viewBox="0 0 16 16" fill="none" xmlns="http://www.w3.org/2000/svg">
<path fill-rule="evenodd" clip-rule="evenodd" d="M4.81086 10.6681C4.70419 10.6681 4.59686 10.6341 4.50619 10.5648C4.28752 10.3961 4.24619 10.0821 4.41486 9.86342L6.41019 7.27009C6.49152 7.16409 6.61219 7.09542 6.74419 7.07876C6.87886 7.06142 7.01086 7.09876 7.11553 7.18209L8.99552 8.65876L10.6402 6.53676C10.8095 6.31742 11.1229 6.27676 11.3415 6.44742C11.5602 6.61676 11.6002 6.93076 11.4309 7.14876L9.47752 9.66876C9.39619 9.77409 9.27619 9.84276 9.14419 9.85876C9.01086 9.87676 8.87886 9.83809 8.77353 9.75609L6.89486 8.28009L5.20752 10.4728C5.10886 10.6008 4.96086 10.6681 4.81086 10.6681" fill="#60626E"/>
<mask id="mask0_348_11177" style="mask-type:luminance" maskUnits="userSpaceOnUse" x="11" y="1" width="5" height="4">
<path fill-rule="evenodd" clip-rule="evenodd" d="M11.53 1.33301H15.0927V4.89627H11.53V1.33301Z" fill="white"/>
</mask>
<g mask="url(#mask0_348_11177)">
<path fill-rule="evenodd" clip-rule="evenodd" d="M13.3114 2.33301C12.8807 2.33301 12.53 2.68301 12.53 3.11434C12.53 3.54501 12.8807 3.89634 13.3114 3.89634C13.742 3.89634 14.0927 3.54501 14.0927 3.11434C14.0927 2.68301 13.742 2.33301 13.3114 2.33301M13.3114 4.89634C12.3294 4.89634 11.53 4.09701 11.53 3.11434C11.53 2.13167 12.3294 1.33301 13.3114 1.33301C14.294 1.33301 15.0927 2.13167 15.0927 3.11434C15.0927 4.09701 14.294 4.89634 13.3114 4.89634" fill="#60626E"/>
</g>
<mask id="mask1_348_11177" style="mask-type:luminance" maskUnits="userSpaceOnUse" x="1" y="1" width="14" height="15">
<path fill-rule="evenodd" clip-rule="evenodd" d="M1.33325 1.89453H14.5745V15.1352H1.33325V1.89453Z" fill="white"/>
</mask>
<g mask="url(#mask1_348_11177)">
<path fill-rule="evenodd" clip-rule="evenodd" d="M10.8219 15.1352H5.08592C2.84125 15.1352 1.33325 13.5585 1.33325 11.2119V5.82386C1.33325 3.47386 2.84125 1.89453 5.08592 1.89453H9.93125C10.2073 1.89453 10.4313 2.11853 10.4313 2.39453C10.4313 2.67053 10.2073 2.89453 9.93125 2.89453H5.08592C3.41392 2.89453 2.33325 4.04386 2.33325 5.82386V11.2119C2.33325 13.0152 3.38792 14.1352 5.08592 14.1352H10.8219C12.4939 14.1352 13.5746 12.9879 13.5746 11.2119V6.5192C13.5746 6.2432 13.7986 6.0192 14.0746 6.0192C14.3506 6.0192 14.5746 6.2432 14.5746 6.5192V11.2119C14.5746 13.5585 13.0666 15.1352 10.8219 15.1352" fill="#60626E"/>
</g>
</svg>
