<svg width="16" height="16" viewBox="0 0 16 16" fill="none" xmlns="http://www.w3.org/2000/svg">
<path fill-rule="evenodd" clip-rule="evenodd" d="M2.19264 2.72491L2.24101 2.67437C3.52595 1.3893 4.36273 1.04868 5.25554 1.56209C5.51236 1.70977 5.75313 1.9165 6.08052 2.24901L7.08477 3.29036C7.63946 3.89563 7.76555 4.4762 7.58494 5.15611L7.56005 5.24612L7.53244 5.33562L7.39819 5.7295C7.11084 6.61282 7.23081 7.11119 8.25314 8.13326C9.31627 9.19613 9.81253 9.28308 10.764 8.9506L10.9336 8.89165L11.1386 8.82506L11.2284 8.80016C11.951 8.60734 12.5615 8.76121 13.209 9.40821L14.0181 10.1898L14.2563 10.4241C14.5204 10.6934 14.6949 10.9067 14.8238 11.1323C15.334 12.0248 14.993 12.8611 13.671 14.1782L13.5453 14.3056C13.3479 14.4958 13.1635 14.6321 12.8926 14.7607C12.4378 14.9766 11.9006 15.0581 11.2763 14.9712C9.73798 14.7573 7.78694 13.5435 5.31475 11.072C5.11351 10.8708 4.92076 10.6735 4.73633 10.48L4.37848 10.0981C1.02525 6.45491 0.729422 4.21693 2.10361 2.81334L2.19264 2.72491ZM5.2711 2.85362C5.05391 2.6395 4.89614 2.50897 4.75704 2.42898C4.44936 2.25205 4.11716 2.32684 3.50236 2.85599L3.30918 3.02857C3.27549 3.05967 3.24102 3.09196 3.20575 3.12546L2.98424 3.34122L2.96428 3.36616L2.8141 3.51703C2.4512 3.8877 2.2793 4.3401 2.42743 5.11812C2.6705 6.3948 3.78311 8.12669 6.02177 10.3648C8.35435 12.6968 10.1316 13.8024 11.414 13.9808C12.1616 14.0847 12.543 13.9037 12.9319 13.5053L13.2284 13.206C13.3675 13.0605 13.4863 12.9286 13.5867 12.8081L13.7235 12.6356C14.0733 12.1697 14.1052 11.8902 13.9557 11.6285C13.8987 11.529 13.8159 11.4198 13.6954 11.2864L13.5319 11.1137L13.4352 11.0169L12.4143 10.0311C12.0732 9.71656 11.8401 9.67192 11.4861 9.76636L11.384 9.79575L10.9611 9.93929C9.73436 10.3355 8.84936 10.1434 7.54612 8.84046C6.19636 7.49104 6.03806 6.58992 6.49031 5.29246L6.51932 5.20908L6.59955 4.96736L6.63898 4.81329C6.70892 4.47798 6.62908 4.24419 6.26862 3.88368L6.21914 3.83381L5.2711 2.85362Z" fill="white"/>
</svg>
