<svg width="16" height="16" viewBox="0 0 16 16" fill="none" xmlns="http://www.w3.org/2000/svg">
<g clip-path="url(#clip0_347_10585)">
<g clip-path="url(#clip1_347_10585)">
<path opacity="0.4" d="M5.03506 11.3324C4.7635 11.0609 4.90506 11.1374 4.25006 10.9621C3.95287 10.8824 3.69162 10.7293 3.45537 10.5459L2.03756 14.0221C1.90037 14.3587 2.15662 14.7243 2.51975 14.7106L4.16631 14.6478L5.29881 15.844C5.54881 16.1078 5.98756 16.0256 6.12475 15.689L7.75131 11.7009C7.41256 11.8896 7.03662 12.0003 6.64787 12.0003C6.0385 12.0003 5.466 11.7631 5.03506 11.3324V11.3324ZM13.9626 14.0221L12.5447 10.5459C12.3085 10.7296 12.0472 10.8824 11.7501 10.9621C11.0916 11.1384 11.236 11.0615 10.9651 11.3324C10.5341 11.7631 9.96131 12.0003 9.35194 12.0003C8.96319 12.0003 8.58725 11.8893 8.2485 11.7009L9.87506 15.689C10.0122 16.0256 10.4513 16.1078 10.701 15.844L11.8338 14.6478L13.4804 14.7106C13.8435 14.7243 14.0997 14.3584 13.9626 14.0221V14.0221ZM10.2188 10.6253C10.6963 10.1393 10.751 10.1812 11.431 9.99588C11.8651 9.87744 12.2044 9.53213 12.3207 9.09025C12.5544 8.20275 12.4938 8.30994 13.1316 7.66056C13.4494 7.33713 13.5735 6.86556 13.4572 6.42369C13.2238 5.53681 13.2235 5.66056 13.4572 4.77275C13.5735 4.33088 13.4494 3.85931 13.1316 3.53588C12.4938 2.8865 12.5544 2.99338 12.3207 2.10619C12.2044 1.66431 11.8651 1.319 11.431 1.20056C10.5597 0.962752 10.6647 1.02494 10.0263 0.375252C9.7085 0.0518145 9.24506 -0.074748 8.811 0.0436895C7.94006 0.281189 8.06162 0.281502 7.18912 0.0436895C6.75506 -0.074748 6.29162 0.051502 5.97381 0.375252C5.336 1.02463 5.441 0.962752 4.56944 1.20056C4.13537 1.319 3.796 1.66431 3.67975 2.10619C3.44631 2.99338 3.50662 2.8865 2.86881 3.53588C2.551 3.85931 2.42662 4.33088 2.54319 4.77275C2.77662 5.659 2.77694 5.53525 2.54319 6.42338C2.42694 6.86525 2.551 7.33681 2.86881 7.66056C3.50662 8.30994 3.446 8.20275 3.67975 9.09025C3.796 9.53213 4.13537 9.87744 4.56944 9.99588C5.26881 10.1865 5.321 10.1565 5.78131 10.6253C6.19475 11.0462 6.83881 11.1215 7.33569 10.8071C7.53438 10.681 7.76487 10.614 8.00022 10.614C8.23557 10.614 8.46606 10.681 8.66475 10.8071C9.16131 11.1215 9.80537 11.0462 10.2188 10.6253ZM5.05194 5.499C5.05194 3.84181 6.37194 2.49838 8.00006 2.49838C9.62819 2.49838 10.9482 3.84181 10.9482 5.499C10.9482 7.15619 9.62819 8.49963 8.00006 8.49963C6.37194 8.49963 5.05194 7.15619 5.05194 5.499V5.499Z" fill="#9FA2B4"/>
</g>
</g>
<defs>
<clipPath id="clip0_347_10585">
<rect width="16" height="16" fill="white"/>
</clipPath>
<clipPath id="clip1_347_10585">
<rect width="16" height="16" fill="white"/>
</clipPath>
</defs>
</svg>
