<svg width="23" height="18" viewBox="0 0 23 18" fill="none" xmlns="http://www.w3.org/2000/svg">
<path d="M16.2045 2.45455V5.93182L19.1945 7.31455L18.4105 8.31273L14.6364 6.54545V2.45455H16.2045ZM15.6818 9.81818C17.1036 9.81818 18.3373 9.40909 19.3409 8.61545C20.3864 7.82182 20.9091 6.86455 20.9091 5.72727C20.9091 4.61455 20.3864 3.64909 19.3409 2.86364C18.3373 2.04545 17.1036 1.63636 15.6818 1.63636C14.2286 1.63636 13.0055 2.04545 11.9914 2.86364C10.9773 3.64909 10.4545 4.61455 10.4545 5.72727C10.4545 6.86455 10.9773 7.82182 11.9914 8.61545C13.0055 9.40909 14.2286 9.81818 15.6818 9.81818ZM13.0682 14.7273C13.5282 14.7273 13.9045 14.5964 14.1973 14.3509C14.49 14.1055 14.6364 13.8191 14.6364 13.5C14.6364 13.1564 14.49 12.87 14.1973 12.6245C13.9045 12.3791 13.5282 12.2727 13.0682 12.2727C12.6082 12.2727 12.2318 12.3791 11.9391 12.6245C11.6464 12.87 11.5 13.1564 11.5 13.5C11.5 13.8191 11.6464 14.1055 11.9391 14.3509C12.2318 14.5964 12.6082 14.7273 13.0682 14.7273ZM2.09091 9.81818H10.5695C9.09545 8.70545 8.36364 7.36364 8.36364 5.72727H2.09091V9.81818ZM3.65909 14.7273C4.11909 14.7273 4.49545 14.5964 4.78818 14.3509C5.08091 14.1055 5.22727 13.8191 5.22727 13.5C5.22727 13.1564 5.08091 12.87 4.78818 12.6245C4.49545 12.3791 4.11909 12.2727 3.65909 12.2727C3.19909 12.2727 2.82273 12.3791 2.53 12.6245C2.23727 12.87 2.09091 13.1564 2.09091 13.5C2.09091 13.8191 2.23727 14.1055 2.53 14.3509C2.82273 14.5964 3.19909 14.7273 3.65909 14.7273ZM15.6818 0C17.6891 0 19.4245 0.548182 20.8568 1.67727C22.2995 2.79818 23 4.15636 23 5.72727C23 7.17545 22.4145 8.41909 21.2018 9.48273C19.9995 10.5382 18.5045 11.1764 16.7273 11.3809V13.9091C16.7273 14.5964 16.3823 15.2018 15.6818 15.7091V17.1818C15.6818 17.4027 15.5668 17.5909 15.3682 17.7627C15.1591 17.9264 14.9291 18 14.6364 18H13.5909C13.3086 18 13.0682 17.9264 12.8486 17.7627C12.6395 17.5909 12.5455 17.4027 12.5455 17.1818V16.3636H4.18182V17.1818C4.18182 17.4027 4.08773 17.5909 3.87864 17.7627C3.65909 17.9264 3.41864 18 3.13636 18H2.09091C1.79818 18 1.56818 17.9264 1.35909 17.7627C1.16045 17.5909 1.04545 17.4027 1.04545 17.1818V15.7091C0.345 15.2018 0 14.5964 0 13.9091V5.72727C0 4.43455 0.700454 3.55909 2.14318 3.10909C3.57545 2.66727 5.65591 2.45455 8.36364 2.45455C8.49955 2.45455 8.70864 2.45455 9.00136 2.45455C9.29409 2.45455 9.50318 2.47909 9.63909 2.47909C11.1132 0.818182 13.1205 0 15.6818 0Z" fill="#A66363"/>
</svg>
